<svg width="3837" height="1080" viewBox="0 0 3837 1080" fill="none" xmlns="http://www.w3.org/2000/svg">
<path d="M530.293 359.669V576.129H462.42V491.746H397.91V576.129H330.037V359.669H397.91V437.631H462.42V359.669H530.293Z" fill="white"/>
<path d="M628.704 413.784V440.383H695.966V491.441H628.704V522.014H705.138V576.129H560.831V359.669H705.138V413.784H628.704Z" fill="white"/>
<path d="M798.59 524.766H864.017V576.129H730.717V359.669H798.59V524.766Z" fill="white"/>
<path d="M953.249 524.766H1018.68V576.129H885.375V359.669H953.249V524.766Z" fill="white"/>
<path d="M1145.51 578.269C1125.13 578.269 1106.38 573.48 1089.26 563.9C1072.34 554.32 1058.89 541.072 1048.9 524.154C1038.91 507.237 1033.92 488.179 1033.92 466.982C1033.92 445.784 1038.91 426.727 1048.9 409.809C1058.89 392.892 1072.34 379.745 1089.26 370.37C1106.38 360.79 1125.13 356 1145.51 356C1165.9 356 1184.55 360.79 1201.46 370.37C1218.38 379.745 1231.73 392.892 1241.51 409.809C1251.5 426.727 1256.49 445.784 1256.49 466.982C1256.49 488.179 1251.5 507.237 1241.51 524.154C1231.73 541.072 1218.28 554.32 1201.16 563.9C1184.24 573.48 1165.69 578.269 1145.51 578.269ZM1145.51 514.982C1158.97 514.982 1169.36 510.702 1176.7 502.141C1184.04 493.377 1187.7 481.657 1187.7 466.982C1187.7 452.103 1184.04 440.383 1176.7 431.822C1169.36 423.058 1158.97 418.676 1145.51 418.676C1131.86 418.676 1121.36 423.058 1114.02 431.822C1106.68 440.383 1103.02 452.103 1103.02 466.982C1103.02 481.657 1106.68 493.377 1114.02 502.141C1121.36 510.702 1131.86 514.982 1145.51 514.982Z" fill="white"/>
<path d="M1353.74 522.014L1322.25 612.817H1279.45L1293.82 522.014H1353.74Z" fill="white"/>
<path d="M1749.28 359.669L1699.75 576.129H1615.37L1590.3 453.224L1565.23 576.129H1480.84L1431.32 359.669H1504.39L1523.95 496.027L1553.3 359.669H1627.29L1656.64 496.027L1676.21 359.669H1749.28Z" fill="white"/>
<path d="M1841.49 413.784V440.383H1908.75V491.441H1841.49V522.014H1917.93V576.129H1773.62V359.669H1917.93V413.784H1841.49Z" fill="white"/>
<path d="M1961.24 359.669H2028.5L1992.42 449.861H1947.79L1961.24 359.669Z" fill="white"/>
<path d="M2167.89 576.129L2127.23 498.473H2126.92V576.129H2059.05V359.669H2159.94C2177.47 359.669 2192.45 362.828 2204.89 369.147C2217.32 375.261 2226.59 383.72 2232.71 394.523C2239.03 405.121 2242.19 417.147 2242.19 430.599C2242.19 445.071 2238.11 457.912 2229.96 469.122C2222.01 480.332 2210.49 488.383 2195.41 493.275L2242.49 576.129H2167.89ZM2126.92 453.224H2153.83C2160.35 453.224 2165.24 451.797 2168.5 448.943C2171.77 445.886 2173.4 441.198 2173.4 434.88C2173.4 429.173 2171.66 424.688 2168.2 421.427C2164.94 418.166 2160.15 416.536 2153.83 416.536H2126.92V453.224Z" fill="white"/>
<path d="M2331.74 413.784V440.383H2399.01V491.441H2331.74V522.014H2408.18V576.129H2263.87V359.669H2408.18V413.784H2331.74Z" fill="white"/>
<path d="M2616.56 576.129L2553.58 482.269V576.129H2485.71V359.669H2553.58V450.778L2615.64 359.669H2692.38L2617.78 463.313L2697.28 576.129H2616.56Z" fill="white"/>
<path d="M2784.37 413.784V440.383H2851.64V491.441H2784.37V522.014H2860.81V576.129H2716.5V359.669H2860.81V413.784H2784.37Z" fill="white"/>
<path d="M3094.29 359.669L3016.63 510.396V576.129H2948.76V510.396L2871.1 359.669H2948.76L2983.31 436.408L3017.85 359.669H3094.29Z" fill="white"/>
<path d="M3176.06 359.669V481.657C3176.06 491.644 3178.2 499.594 3182.48 505.504C3186.97 511.211 3194.1 514.065 3203.88 514.065C3213.67 514.065 3220.9 511.211 3225.59 505.504C3230.28 499.594 3232.62 491.644 3232.62 481.657V359.669H3300.19V481.657C3300.19 502.243 3295.91 519.874 3287.35 534.549C3278.79 549.021 3267.07 559.925 3252.19 567.263C3237.31 574.601 3220.7 578.269 3202.35 578.269C3184.01 578.269 3167.7 574.601 3153.44 567.263C3139.37 559.925 3128.37 549.021 3120.42 534.549C3112.47 520.078 3108.49 502.447 3108.49 481.657V359.669H3176.06Z" fill="white"/>
<path d="M3506.48 433.962C3506.48 447.619 3503.33 460.052 3497.01 471.262C3490.69 482.269 3481.31 491.033 3468.88 497.555C3456.65 504.078 3441.77 507.339 3424.24 507.339H3397.34V576.129H3329.46V359.669H3424.24C3450.74 359.669 3471.02 366.395 3485.08 379.847C3499.35 393.3 3506.48 411.338 3506.48 433.962ZM3416.6 453.835C3430.66 453.835 3437.69 447.211 3437.69 433.962C3437.69 420.714 3430.66 414.09 3416.6 414.09H3397.34V453.835H3416.6Z" fill="white"/>
<path d="M344.431 713.208H358.342V724.129H330V678.106H344.431V713.208Z" fill="white"/>
<path d="M392.395 717.174H377.054L374.779 724.129H359.633L376.469 678.106H393.11L409.882 724.129H394.67L392.395 717.174ZM388.885 706.318L384.725 693.512L380.564 706.318H388.885Z" fill="white"/>
<path d="M427.266 678.106V704.043C427.266 706.166 427.721 707.856 428.631 709.113C429.585 710.327 431.101 710.933 433.182 710.933C435.262 710.933 436.8 710.327 437.797 709.113C438.794 707.856 439.292 706.166 439.292 704.043V678.106H453.658V704.043C453.658 708.42 452.748 712.168 450.928 715.289C449.108 718.365 446.616 720.684 443.452 722.244C440.289 723.804 436.757 724.584 432.857 724.584C428.956 724.584 425.489 723.804 422.456 722.244C419.466 720.684 417.125 718.365 415.435 715.289C413.745 712.212 412.9 708.463 412.9 704.043V678.106H427.266Z" fill="white"/>
<path d="M504.02 724.129H489.589L474.313 700.988V724.129H459.882V678.106H474.313L489.589 701.638V678.106H504.02V724.129Z" fill="white"/>
<path d="M509.24 701.053C509.24 696.502 510.15 692.45 511.97 688.897C513.834 685.343 516.477 682.591 519.901 680.641C523.324 678.648 527.355 677.651 531.992 677.651C535.979 677.651 539.532 678.409 542.652 679.926C545.816 681.4 548.373 683.501 550.323 686.232C552.316 688.962 553.638 692.147 554.288 695.787H539.077C538.384 694.27 537.387 693.1 536.087 692.277C534.83 691.41 533.378 690.977 531.732 690.977C529.305 690.977 527.376 691.887 525.946 693.707C524.559 695.527 523.866 697.976 523.866 701.053C523.866 704.129 524.559 706.578 525.946 708.398C527.376 710.218 529.305 711.128 531.732 711.128C533.378 711.128 534.83 710.717 536.087 709.893C537.387 709.026 538.384 707.835 539.077 706.318H554.288C553.638 709.958 552.316 713.143 550.323 715.874C548.373 718.604 545.816 720.727 542.652 722.244C539.532 723.718 535.979 724.454 531.992 724.454C527.355 724.454 523.324 723.479 519.901 721.529C516.477 719.536 513.834 716.762 511.97 713.208C510.15 709.655 509.24 705.603 509.24 701.053Z" fill="white"/>
<path d="M602.062 678.106V724.129H587.631V706.188H573.915V724.129H559.484V678.106H573.915V694.682H587.631V678.106H602.062Z" fill="white"/>
<path d="M663.804 678.106L647.292 710.153V724.129H632.861V710.153L616.35 678.106H632.861L640.207 694.422L647.552 678.106H663.804Z" fill="white"/>
<path d="M689.511 724.584C685.177 724.584 681.19 723.566 677.55 721.529C673.953 719.492 671.093 716.675 668.969 713.078C666.846 709.482 665.784 705.43 665.784 700.923C665.784 696.416 666.846 692.364 668.969 688.767C671.093 685.17 673.953 682.375 677.55 680.381C681.19 678.344 685.177 677.326 689.511 677.326C693.845 677.326 697.81 678.344 701.407 680.381C705.004 682.375 707.842 685.17 709.922 688.767C712.046 692.364 713.108 696.416 713.108 700.923C713.108 705.43 712.046 709.482 709.922 713.078C707.842 716.675 704.982 719.492 701.342 721.529C697.745 723.566 693.801 724.584 689.511 724.584ZM689.511 711.128C692.371 711.128 694.581 710.218 696.141 708.398C697.702 706.535 698.482 704.043 698.482 700.923C698.482 697.759 697.702 695.267 696.141 693.447C694.581 691.584 692.371 690.652 689.511 690.652C686.607 690.652 684.376 691.584 682.815 693.447C681.255 695.267 680.475 697.759 680.475 700.923C680.475 704.043 681.255 706.535 682.815 708.398C684.376 710.218 686.607 711.128 689.511 711.128Z" fill="white"/>
<path d="M732.42 678.106V704.043C732.42 706.166 732.875 707.856 733.785 709.113C734.738 710.327 736.255 710.933 738.335 710.933C740.415 710.933 741.954 710.327 742.95 709.113C743.947 707.856 744.445 706.166 744.445 704.043V678.106H758.811V704.043C758.811 708.42 757.901 712.168 756.081 715.289C754.261 718.365 751.769 720.684 748.606 722.244C745.442 723.804 741.91 724.584 738.01 724.584C734.11 724.584 730.643 723.804 727.609 722.244C724.619 720.684 722.279 718.365 720.589 715.289C718.899 712.212 718.054 708.463 718.054 704.043V678.106H732.42Z" fill="white"/>
<path d="M788.177 724.129L779.532 707.618H779.467V724.129H765.036V678.106H786.487C790.214 678.106 793.399 678.778 796.043 680.121C798.686 681.421 800.658 683.22 801.958 685.516C803.302 687.77 803.973 690.327 803.973 693.187C803.973 696.264 803.107 698.994 801.373 701.378C799.683 703.761 797.235 705.473 794.028 706.513L804.038 724.129H788.177ZM779.467 697.997H785.187C786.574 697.997 787.614 697.694 788.307 697.087C789.001 696.437 789.347 695.441 789.347 694.097C789.347 692.884 788.979 691.93 788.242 691.237C787.549 690.544 786.53 690.197 785.187 690.197H779.467V697.997Z" fill="white"/>
<path d="M834.06 678.106V724.129H819.629V678.106H834.06Z" fill="white"/>
<path d="M859.754 678.106C864.565 678.106 868.768 679.081 872.365 681.031C876.006 682.981 878.801 685.69 880.751 689.157C882.701 692.624 883.676 696.567 883.676 700.988C883.676 705.365 882.701 709.308 880.751 712.818C878.801 716.329 876.006 719.102 872.365 721.139C868.768 723.132 864.565 724.129 859.754 724.129H840.578V678.106H859.754ZM858.454 711.258C861.705 711.258 864.283 710.37 866.19 708.593C868.097 706.816 869.05 704.281 869.05 700.988C869.05 697.694 868.097 695.159 866.19 693.382C864.283 691.605 861.705 690.717 858.454 690.717H855.009V711.258H858.454Z" fill="white"/>
<path d="M903.318 689.612V695.267H917.619V706.123H903.318V712.623H919.569V724.129H888.887V678.106H919.569V689.612H903.318Z" fill="white"/>
<path d="M954.52 717.174H939.179L936.904 724.129H921.758L938.594 678.106H955.235L972.006 724.129H956.795L954.52 717.174ZM951.01 706.318L946.849 693.512L942.689 706.318H951.01Z" fill="white"/>
<path d="M1022.47 678.106V689.547H1010.25V724.129H995.821V689.547H983.73V678.106H1022.47Z" fill="white"/>
<path d="M1048.81 724.584C1044.48 724.584 1040.49 723.566 1036.85 721.529C1033.26 719.492 1030.4 716.675 1028.27 713.078C1026.15 709.482 1025.09 705.43 1025.09 700.923C1025.09 696.416 1026.15 692.364 1028.27 688.767C1030.4 685.17 1033.26 682.375 1036.85 680.381C1040.49 678.344 1044.48 677.326 1048.81 677.326C1053.15 677.326 1057.11 678.344 1060.71 680.381C1064.31 682.375 1067.14 685.17 1069.23 688.767C1071.35 692.364 1072.41 696.416 1072.41 700.923C1072.41 705.43 1071.35 709.482 1069.23 713.078C1067.14 716.675 1064.28 719.492 1060.64 721.529C1057.05 723.566 1053.1 724.584 1048.81 724.584ZM1048.81 711.128C1051.67 711.128 1053.88 710.218 1055.44 708.398C1057 706.535 1057.78 704.043 1057.78 700.923C1057.78 697.759 1057 695.267 1055.44 693.447C1053.88 691.584 1051.67 690.652 1048.81 690.652C1045.91 690.652 1043.68 691.584 1042.12 693.447C1040.56 695.267 1039.78 697.759 1039.78 700.923C1039.78 704.043 1040.56 706.535 1042.12 708.398C1043.68 710.218 1045.91 711.128 1048.81 711.128Z" fill="white"/>
<path d="M1106.67 724.584C1101.16 724.584 1096.61 723.306 1093.02 720.749C1089.46 718.149 1087.54 714.357 1087.23 709.373H1102.57C1102.79 712.017 1103.96 713.338 1106.08 713.338C1106.86 713.338 1107.51 713.165 1108.03 712.818C1108.6 712.428 1108.88 711.843 1108.88 711.063C1108.88 709.98 1108.29 709.113 1107.12 708.463C1105.95 707.77 1104.13 706.99 1101.66 706.123C1098.72 705.083 1096.27 704.064 1094.32 703.068C1092.41 702.071 1090.76 700.619 1089.38 698.712C1087.99 696.806 1087.32 694.357 1087.36 691.367C1087.36 688.377 1088.12 685.842 1089.64 683.761C1091.2 681.638 1093.3 680.034 1095.94 678.951C1098.63 677.868 1101.64 677.326 1104.98 677.326C1110.61 677.326 1115.08 678.626 1118.37 681.226C1121.71 683.826 1123.46 687.488 1123.63 692.212H1108.1C1108.06 690.912 1107.73 689.98 1107.12 689.417C1106.52 688.853 1105.78 688.572 1104.91 688.572C1104.31 688.572 1103.81 688.788 1103.42 689.222C1103.03 689.612 1102.83 690.175 1102.83 690.912C1102.83 691.952 1103.4 692.819 1104.52 693.512C1105.69 694.162 1107.54 694.964 1110.05 695.917C1112.95 697.001 1115.34 698.041 1117.2 699.037C1119.11 700.034 1120.75 701.421 1122.14 703.198C1123.53 704.975 1124.22 707.206 1124.22 709.893C1124.22 712.71 1123.53 715.245 1122.14 717.499C1120.75 719.709 1118.74 721.442 1116.09 722.699C1113.45 723.956 1110.31 724.584 1106.67 724.584Z" fill="white"/>
<path d="M1143.72 689.612V695.267H1158.02V706.123H1143.72V712.623H1159.97V724.129H1129.29V678.106H1159.97V689.612H1143.72Z" fill="white"/>
<path d="M1188.55 724.129L1179.91 707.618H1179.84V724.129H1165.41V678.106H1186.86C1190.59 678.106 1193.77 678.778 1196.42 680.121C1199.06 681.421 1201.03 683.22 1202.33 685.516C1203.68 687.77 1204.35 690.327 1204.35 693.187C1204.35 696.264 1203.48 698.994 1201.75 701.378C1200.06 703.761 1197.61 705.473 1194.4 706.513L1204.41 724.129H1188.55ZM1179.84 697.997H1185.56C1186.95 697.997 1187.99 697.694 1188.68 697.087C1189.38 696.437 1189.72 695.441 1189.72 694.097C1189.72 692.884 1189.35 691.93 1188.62 691.237C1187.92 690.544 1186.91 690.197 1185.56 690.197H1179.84V697.997Z" fill="white"/>
<path d="M1255.31 678.106L1239.84 724.129H1221.18L1205.71 678.106H1221.05L1230.54 709.763L1239.97 678.106H1255.31Z" fill="white"/>
<path d="M1272.97 678.106V724.129H1258.54V678.106H1272.97Z" fill="white"/>
<path d="M1278.19 701.053C1278.19 696.502 1279.1 692.45 1280.92 688.897C1282.78 685.343 1285.42 682.591 1288.85 680.641C1292.27 678.648 1296.3 677.651 1300.94 677.651C1304.92 677.651 1308.48 678.409 1311.6 679.926C1314.76 681.4 1317.32 683.501 1319.27 686.232C1321.26 688.962 1322.58 692.147 1323.23 695.787H1308.02C1307.33 694.27 1306.33 693.1 1305.03 692.277C1303.78 691.41 1302.32 690.977 1300.68 690.977C1298.25 690.977 1296.32 691.887 1294.89 693.707C1293.51 695.527 1292.81 697.976 1292.81 701.053C1292.81 704.129 1293.51 706.578 1294.89 708.398C1296.32 710.218 1298.25 711.128 1300.68 711.128C1302.32 711.128 1303.78 710.717 1305.03 709.893C1306.33 709.026 1307.33 707.835 1308.02 706.318H1323.23C1322.58 709.958 1321.26 713.143 1319.27 715.874C1317.32 718.604 1314.76 720.727 1311.6 722.244C1308.48 723.718 1304.92 724.454 1300.94 724.454C1296.3 724.454 1292.27 723.479 1288.85 721.529C1285.42 719.536 1282.78 716.762 1280.92 713.208C1279.1 709.655 1278.19 705.603 1278.19 701.053Z" fill="white"/>
<path d="M1342.86 689.612V695.267H1357.16V706.123H1342.86V712.623H1359.11V724.129H1328.43V678.106H1359.11V689.612H1342.86Z" fill="white"/>
</svg>
